<svg width="138" height="35" viewBox="0 0 138 35" fill="none" xmlns="http://www.w3.org/2000/svg">
<rect opacity="0.9" width="64.488" height="21.9913" transform="matrix(1 0 0 -1 0 21.9915)" fill="url(#paint0_linear_26_11)"/>
<path d="M5.05231 3.78604H12.3459C14.7192 3.78604 16.4992 4.42279 17.6859 5.69627C18.8725 6.96976 19.4659 8.83658 19.4659 11.2967V26.6654C19.4659 29.1256 18.8725 30.9924 17.6859 32.2659C16.4992 33.5394 14.7192 34.1761 12.3459 34.1761H5.05231V3.78604ZM12.2591 29.8347C13.0406 29.8347 13.6339 29.6031 14.0391 29.14C14.4732 28.6769 14.6903 27.9244 14.6903 26.8825V11.0797C14.6903 10.0377 14.4732 9.2852 14.0391 8.82211C13.6339 8.35902 13.0406 8.12748 12.2591 8.12748H9.82789V29.8347H12.2591Z" fill="white"/>
<path d="M22.6894 3.78604H29.5054L32.5445 25.5366H32.6313L35.6703 3.78604H42.4863V34.1761H37.9712V11.1665H37.8844L34.4113 34.1761H30.4172L26.944 11.1665H26.8572V34.1761H22.6894V3.78604Z" fill="white"/>
<path d="M46.0501 3.78604H53.0832C55.4565 3.78604 57.2365 4.42279 58.4231 5.69627C59.6098 6.96976 60.2031 8.83658 60.2031 11.2967V14.2923C60.2031 16.7525 59.6098 18.6193 58.4231 19.8928C57.2365 21.1663 55.4565 21.803 53.0832 21.803H50.8256V34.1761H46.0501V3.78604ZM53.0832 17.4616C53.8646 17.4616 54.4435 17.2445 54.8198 16.8104C55.225 16.3762 55.4276 15.6382 55.4276 14.5962V10.9928C55.4276 9.95088 55.225 9.21284 54.8198 8.77869C54.4435 8.34455 53.8646 8.12748 53.0832 8.12748H50.8256V17.4616H53.0832Z" fill="white"/>
<path d="M70.4315 4.0733H69.9315V4.5733V33.4658V33.9658H70.4315H74.9567H75.4567V33.4658V22.2024H77.0959C79.4318 22.2024 81.2729 21.5719 82.5223 20.2266C83.7627 18.891 84.3426 16.9746 84.3426 14.5618V11.7139C84.3426 9.30116 83.7627 7.3847 82.5223 6.04914C81.2729 4.7038 79.4318 4.0733 77.0959 4.0733H70.4315ZM78.3754 16.6152L78.3691 16.622L78.3631 16.6289C78.1322 16.8962 77.7457 17.0749 77.0959 17.0749H75.4567V9.2008H77.0959C77.7457 9.2008 78.1322 9.37949 78.3631 9.64677L78.3691 9.65374L78.3754 9.66048C78.6281 9.93211 78.8174 10.4733 78.8174 11.4249V14.8508C78.8174 15.8024 78.6281 16.3436 78.3754 16.6152ZM89.1393 32.3577L89.1393 32.3577L89.143 32.3617C90.4156 33.7297 92.2386 34.3785 94.528 34.3785C96.8173 34.3785 98.6404 33.7297 99.913 32.3617L99.913 32.3617L99.9167 32.3577C101.179 30.9707 101.775 29.0314 101.775 26.6141V4.5733V4.0733H101.275H96.914H96.414V4.5733V26.9443C96.414 27.8851 96.2153 28.4456 95.9316 28.7493L95.9257 28.7555L95.9201 28.762C95.6554 29.0655 95.2478 29.251 94.6103 29.251C93.9785 29.251 93.5495 29.0684 93.2538 28.7557C92.9914 28.45 92.8065 27.8849 92.8065 26.9443V4.5733V4.0733H92.3065H87.7813H87.2813V4.5733V26.6141C87.2813 29.0314 87.8771 30.9707 89.1393 32.3577ZM106.674 32.3532L106.678 32.3573C107.924 33.7299 109.737 34.3785 112.026 34.3785C114.343 34.3785 116.181 33.7158 117.454 32.3184C118.745 30.9307 119.355 28.976 119.355 26.5316C119.355 24.6495 118.985 22.9841 118.227 21.5512C117.473 20.1249 116.118 18.5779 114.206 16.9092C112.739 15.6284 111.755 14.5669 111.217 13.7208C110.717 12.8909 110.469 12.0048 110.469 11.0535C110.469 10.1871 110.648 9.63017 110.922 9.29602C111.179 8.98108 111.584 8.78805 112.232 8.78805C112.859 8.78805 113.264 8.98059 113.532 9.30695L113.537 9.31272L113.541 9.31836C113.807 9.62255 113.994 10.1889 113.994 11.136V12.6219V13.1219H114.494H118.773H119.273V12.6219V11.4249C119.273 9.01388 118.694 7.08851 117.46 5.72743C116.242 4.32479 114.454 3.66055 112.19 3.66055C109.899 3.66055 108.075 4.3245 106.804 5.72047C105.541 7.07952 104.944 8.97826 104.944 11.3424C104.944 13.0972 105.332 14.6947 106.116 16.1233L106.118 16.1272C106.898 17.5181 108.248 19.0473 110.131 20.7147L110.134 20.717C111.602 21.9987 112.568 23.0708 113.076 23.9365L113.076 23.9365L113.079 23.9421C113.574 24.7617 113.83 25.729 113.83 26.8618C113.83 27.8306 113.631 28.4265 113.337 28.7604L113.336 28.762C113.074 29.0616 112.656 29.251 111.985 29.251C111.306 29.251 110.88 29.0523 110.61 28.7288C110.325 28.3881 110.14 27.8225 110.14 26.9443V24.9631V24.4631H109.64H105.362H104.862V24.9631V26.6141C104.862 29.0287 105.442 30.9661 106.674 32.3532ZM123.095 4.0733H122.595V4.5733V33.4658V33.9658H123.095H127.62H128.12V33.4658V20.9642H131.975V33.4658V33.9658H132.475H137H137.5V33.4658V4.5733V4.0733H137H132.475H131.975V4.5733V15.8367H128.12V4.5733V4.0733H127.62H123.095Z" stroke="white"/>
<defs>
<linearGradient id="paint0_linear_26_11" x1="6.88713" y1="-3.76936e-07" x2="59.2293" y2="22.0388" gradientUnits="userSpaceOnUse">
<stop stop-color="white" stop-opacity="0.35"/>
<stop offset="1" stop-color="white" stop-opacity="0"/>
</linearGradient>
</defs>
</svg>
